<svg xmlns="http://www.w3.org/2000/svg" version="1.1" xmlns:xlink="http://www.w3.org/1999/xlink" width="512" height="512" x="0" y="0" viewBox="0 0 512 512" style="enable-background:new 0 0 512 512" xml:space="preserve" class=""><defs><linearGradient xlink:href="#a" id="i" x1="131.922" x2="149.243" y1="459.276" y2="474.64" gradientUnits="userSpaceOnUse"></linearGradient><linearGradient xlink:href="#b" id="j" x1="128.039" x2="155.975" y1="432.854" y2="486.77" gradientUnits="userSpaceOnUse"></linearGradient><linearGradient xlink:href="#a" id="k" x1="123.382" x2="123.382" y1="490.665" y2="509.191" gradientUnits="userSpaceOnUse"></linearGradient><linearGradient xlink:href="#b" id="l" x1="150.498" x2="167.189" y1="504.836" y2="513.267" gradientUnits="userSpaceOnUse"></linearGradient><linearGradient xlink:href="#b" id="m" x1="123.382" x2="123.382" y1="501.16" y2="512.752" gradientUnits="userSpaceOnUse"></linearGradient><linearGradient xlink:href="#a" id="n" x1="310.554" x2="327.875" y1="459.276" y2="474.64" gradientTransform="matrix(-1 0 0 1 690.632 0)" gradientUnits="userSpaceOnUse"></linearGradient><linearGradient xlink:href="#b" id="o" x1="306.671" x2="334.607" y1="432.854" y2="486.77" gradientTransform="matrix(-1 0 0 1 690.632 0)" gradientUnits="userSpaceOnUse"></linearGradient><linearGradient xlink:href="#a" id="p" x1="388.618" x2="388.618" y1="490.665" y2="509.191" gradientUnits="userSpaceOnUse"></linearGradient><linearGradient xlink:href="#b" id="q" x1="415.735" x2="432.425" y1="504.836" y2="513.267" gradientUnits="userSpaceOnUse"></linearGradient><linearGradient xlink:href="#b" id="r" x1="388.618" x2="388.618" y1="501.16" y2="512.752" gradientUnits="userSpaceOnUse"></linearGradient><linearGradient xlink:href="#c" id="s" x1="256" x2="256" y1="5.852" y2="60.557" gradientUnits="userSpaceOnUse"></linearGradient><linearGradient xlink:href="#d" id="t" x1="128.06" x2="358.856" y1="168.921" y2="399.716" gradientUnits="userSpaceOnUse"></linearGradient><linearGradient xlink:href="#d" id="u" x1="377.388" x2="116.132" y1="418.248" y2="156.993" gradientUnits="userSpaceOnUse"></linearGradient><linearGradient xlink:href="#e" id="v" x1="128.183" x2="78.282" y1="209.215" y2="174.997" gradientUnits="userSpaceOnUse"></linearGradient><linearGradient xlink:href="#e" id="w" x1="256" x2="256" y1="299.507" y2="545.554" gradientUnits="userSpaceOnUse"></linearGradient><linearGradient xlink:href="#e" id="x" x1="-1401.88" x2="-1401.88" y1="-881.561" y2="-622.57" gradientTransform="rotate(-45 853.218 -2294.93)" gradientUnits="userSpaceOnUse"></linearGradient><linearGradient xlink:href="#c" id="y" x1="2294.316" x2="2456.101" y1="-2002.544" y2="-1840.76" gradientTransform="rotate(180 1320 -808)" gradientUnits="userSpaceOnUse"></linearGradient><linearGradient xlink:href="#f" id="z" x1="239.226" x2="203.849" y1="247.763" y2="144.252" gradientUnits="userSpaceOnUse"></linearGradient><linearGradient xlink:href="#f" id="A" x1="183.996" x2="118.482" y1="262.292" y2="230.845" gradientUnits="userSpaceOnUse"></linearGradient><linearGradient xlink:href="#e" id="B" x1="419.217" x2="422.782" y1="215.02" y2="179.139" gradientUnits="userSpaceOnUse"></linearGradient><linearGradient xlink:href="#g" id="C" x1="430.446" x2="434.294" y1="83.089" y2="180.935" gradientUnits="userSpaceOnUse"></linearGradient><linearGradient xlink:href="#h" id="D" x1="442.936" x2="446.234" y1="158.657" y2="207.58" gradientUnits="userSpaceOnUse"></linearGradient><linearGradient xlink:href="#h" id="E" x1="453.372" x2="519.335" y1="124.013" y2="103.124" gradientUnits="userSpaceOnUse"></linearGradient><linearGradient xlink:href="#g" id="F" x1="-112.845" x2="-108.997" y1="83.089" y2="180.935" gradientTransform="matrix(-1 0 0 1 -31.29 0)" gradientUnits="userSpaceOnUse"></linearGradient><linearGradient xlink:href="#h" id="G" x1="-100.354" x2="-97.056" y1="158.657" y2="207.58" gradientTransform="matrix(-1 0 0 1 -31.29 0)" gradientUnits="userSpaceOnUse"></linearGradient><linearGradient xlink:href="#h" id="H" x1="-89.919" x2="-23.955" y1="124.013" y2="103.124" gradientTransform="matrix(-1 0 0 1 -31.29 0)" gradientUnits="userSpaceOnUse"></linearGradient><linearGradient xlink:href="#f" id="I" x1="241.61" x2="238.046" y1="340.159" y2="295.248" gradientUnits="userSpaceOnUse"></linearGradient><linearGradient id="J" x1="190.992" x2="190.992" y1="291.594" y2="301.581" gradientUnits="userSpaceOnUse"><stop offset="0" stop-color="#b3dafe"></stop><stop offset="1" stop-color="#0182fc"></stop></linearGradient><linearGradient xlink:href="#f" id="K" x1="306.966" x2="246.693" y1="330.919" y2="307.334" gradientUnits="userSpaceOnUse"></linearGradient><linearGradient xlink:href="#f" id="L" x1="341.044" x2="299.989" y1="296.775" y2="261.398" gradientUnits="userSpaceOnUse"></linearGradient><linearGradient xlink:href="#a" id="M" x1="297.859" x2="313.171" y1="238.405" y2="253.716" gradientUnits="userSpaceOnUse"></linearGradient><linearGradient xlink:href="#b" id="N" x1="283.711" x2="266.192" y1="267.283" y2="284.803" gradientUnits="userSpaceOnUse"></linearGradient><linearGradient xlink:href="#a" id="O" x1="-245.638" x2="-233.974" y1="785.411" y2="797.075" gradientTransform="rotate(90 256 826.994)" gradientUnits="userSpaceOnUse"></linearGradient><linearGradient xlink:href="#b" id="P" x1="-256.416" x2="-269.763" y1="807.411" y2="820.757" gradientTransform="rotate(90 256 826.994)" gradientUnits="userSpaceOnUse"></linearGradient><linearGradient xlink:href="#f" id="Q" x1="818.474" x2="154.131" y1="568.845" y2="113.342" gradientUnits="userSpaceOnUse"></linearGradient><linearGradient xlink:href="#f" id="R" x1="712.443" x2="48.099" y1="723.49" y2="267.987" gradientUnits="userSpaceOnUse"></linearGradient><linearGradient xlink:href="#f" id="S" x1="801.809" x2="137.465" y1="593.151" y2="137.649" gradientUnits="userSpaceOnUse"></linearGradient><linearGradient xlink:href="#f" id="T" x1="793.197" x2="128.853" y1="605.712" y2="150.209" gradientUnits="userSpaceOnUse"></linearGradient><linearGradient xlink:href="#f" id="U" x1="737.72" x2="73.377" y1="686.623" y2="231.12" gradientUnits="userSpaceOnUse"></linearGradient><linearGradient xlink:href="#f" id="V" x1="823.447" x2="159.103" y1="561.593" y2="106.09" gradientUnits="userSpaceOnUse"></linearGradient><linearGradient xlink:href="#f" id="W" x1="707.471" x2="43.127" y1="730.742" y2="275.239" gradientUnits="userSpaceOnUse"></linearGradient><linearGradient xlink:href="#f" id="X" x1="829.547" x2="165.203" y1="552.696" y2="97.193" gradientUnits="userSpaceOnUse"></linearGradient><linearGradient xlink:href="#f" id="Y" x1="701.37" x2="37.027" y1="739.639" y2="284.136" gradientUnits="userSpaceOnUse"></linearGradient><linearGradient xlink:href="#f" id="Z" x1="760.487" x2="96.143" y1="653.419" y2="197.916" gradientUnits="userSpaceOnUse"></linearGradient><linearGradient xlink:href="#f" id="aa" x1="770.431" x2="106.087" y1="638.916" y2="183.413" gradientUnits="userSpaceOnUse"></linearGradient><linearGradient xlink:href="#g" id="ab" x1="244.776" x2="265.024" y1="285.636" y2="305.884" gradientUnits="userSpaceOnUse"></linearGradient><linearGradient xlink:href="#h" id="ac" x1="256" x2="256" y1="297.093" y2="318.679" gradientUnits="userSpaceOnUse"></linearGradient><linearGradient xlink:href="#h" id="ad" x1="-1401.88" x2="-1401.88" y1="-883.976" y2="-861.255" gradientTransform="rotate(-45 853.218 -2294.93)" gradientUnits="userSpaceOnUse"></linearGradient></defs><g><linearGradient id="a"><stop offset="0" stop-color="#5a5a5a"></stop><stop offset="1" stop-color="#444"></stop></linearGradient><linearGradient xlink:href="#a" id="i" x1="131.922" x2="149.243" y1="459.276" y2="474.64" gradientUnits="userSpaceOnUse"></linearGradient><linearGradient id="b"><stop offset="0" stop-color="#433f43" stop-opacity="0"></stop><stop offset="1" stop-color="#1a1a1a"></stop></linearGradient><linearGradient xlink:href="#b" id="j" x1="128.039" x2="155.975" y1="432.854" y2="486.77" gradientUnits="userSpaceOnUse"></linearGradient><linearGradient xlink:href="#a" id="k" x1="123.382" x2="123.382" y1="490.665" y2="509.191" gradientUnits="userSpaceOnUse"></linearGradient><linearGradient xlink:href="#b" id="l" x1="150.498" x2="167.189" y1="504.836" y2="513.267" gradientUnits="userSpaceOnUse"></linearGradient><linearGradient xlink:href="#b" id="m" x1="123.382" x2="123.382" y1="501.16" y2="512.752" gradientUnits="userSpaceOnUse"></linearGradient><linearGradient xlink:href="#a" id="n" x1="310.554" x2="327.875" y1="459.276" y2="474.64" gradientTransform="matrix(-1 0 0 1 690.632 0)" gradientUnits="userSpaceOnUse"></linearGradient><linearGradient xlink:href="#b" id="o" x1="306.671" x2="334.607" y1="432.854" y2="486.77" gradientTransform="matrix(-1 0 0 1 690.632 0)" gradientUnits="userSpaceOnUse"></linearGradient><linearGradient xlink:href="#a" id="p" x1="388.618" x2="388.618" y1="490.665" y2="509.191" gradientUnits="userSpaceOnUse"></linearGradient><linearGradient xlink:href="#b" id="q" x1="415.735" x2="432.425" y1="504.836" y2="513.267" gradientUnits="userSpaceOnUse"></linearGradient><linearGradient xlink:href="#b" id="r" x1="388.618" x2="388.618" y1="501.16" y2="512.752" gradientUnits="userSpaceOnUse"></linearGradient><linearGradient id="c"><stop offset="0" stop-color="#f5fbff"></stop><stop offset="1" stop-color="#dbd5ef"></stop></linearGradient><linearGradient xlink:href="#c" id="s" x1="256" x2="256" y1="5.852" y2="60.557" gradientUnits="userSpaceOnUse"></linearGradient><linearGradient id="d"><stop offset="0" stop-color="#ffa1ae"></stop><stop offset="1" stop-color="#ff4565"></stop></linearGradient><linearGradient xlink:href="#d" id="t" x1="128.06" x2="358.856" y1="168.921" y2="399.716" gradientUnits="userSpaceOnUse"></linearGradient><linearGradient xlink:href="#d" id="u" x1="377.388" x2="116.132" y1="418.248" y2="156.993" gradientUnits="userSpaceOnUse"></linearGradient><linearGradient id="e"><stop offset="0" stop-color="#fe0364" stop-opacity="0"></stop><stop offset=".234" stop-color="#f90362" stop-opacity=".234"></stop><stop offset=".517" stop-color="#ea035b" stop-opacity=".517"></stop><stop offset=".824" stop-color="#d20250" stop-opacity=".824"></stop><stop offset="1" stop-color="#c00148"></stop></linearGradient><linearGradient xlink:href="#e" id="v" x1="128.183" x2="78.282" y1="209.215" y2="174.997" gradientUnits="userSpaceOnUse"></linearGradient><linearGradient xlink:href="#e" id="w" x1="256" x2="256" y1="299.507" y2="545.554" gradientUnits="userSpaceOnUse"></linearGradient><linearGradient xlink:href="#e" id="x" x1="-1401.88" x2="-1401.88" y1="-881.561" y2="-622.57" gradientTransform="rotate(-45 853.218 -2294.93)" gradientUnits="userSpaceOnUse"></linearGradient><linearGradient xlink:href="#c" id="y" x1="2294.316" x2="2456.101" y1="-2002.544" y2="-1840.76" gradientTransform="rotate(180 1320 -808)" gradientUnits="userSpaceOnUse"></linearGradient><linearGradient id="f"><stop offset="0" stop-color="#dbd5ef" stop-opacity="0"></stop><stop offset=".285" stop-color="#d9d2ee" stop-opacity=".285"></stop><stop offset=".474" stop-color="#d4c9e9" stop-opacity=".474"></stop><stop offset=".635" stop-color="#cbbae2" stop-opacity=".635"></stop><stop offset=".779" stop-color="#bfa5d7" stop-opacity=".78"></stop><stop offset=".913" stop-color="#af8aca" stop-opacity=".913"></stop><stop offset="1" stop-color="#a274bf"></stop></linearGradient><linearGradient xlink:href="#f" id="z" x1="239.226" x2="203.849" y1="247.763" y2="144.252" gradientUnits="userSpaceOnUse"></linearGradient><linearGradient xlink:href="#f" id="A" x1="183.996" x2="118.482" y1="262.292" y2="230.845" gradientUnits="userSpaceOnUse"></linearGradient><linearGradient xlink:href="#e" id="B" x1="419.217" x2="422.782" y1="215.02" y2="179.139" gradientUnits="userSpaceOnUse"></linearGradient><linearGradient id="g"><stop offset="0" stop-color="#fef0ae"></stop><stop offset="1" stop-color="#fac600"></stop></linearGradient><linearGradient xlink:href="#g" id="C" x1="430.446" x2="434.294" y1="83.089" y2="180.935" gradientUnits="userSpaceOnUse"></linearGradient><linearGradient id="h"><stop offset="0" stop-color="#fe9738" stop-opacity="0"></stop><stop offset="1" stop-color="#fe9738"></stop></linearGradient><linearGradient xlink:href="#h" id="D" x1="442.936" x2="446.234" y1="158.657" y2="207.58" gradientUnits="userSpaceOnUse"></linearGradient><linearGradient xlink:href="#h" id="E" x1="453.372" x2="519.335" y1="124.013" y2="103.124" gradientUnits="userSpaceOnUse"></linearGradient><linearGradient xlink:href="#g" id="F" x1="-112.845" x2="-108.997" y1="83.089" y2="180.935" gradientTransform="matrix(-1 0 0 1 -31.29 0)" gradientUnits="userSpaceOnUse"></linearGradient><linearGradient xlink:href="#h" id="G" x1="-100.354" x2="-97.056" y1="158.657" y2="207.58" gradientTransform="matrix(-1 0 0 1 -31.29 0)" gradientUnits="userSpaceOnUse"></linearGradient><linearGradient xlink:href="#h" id="H" x1="-89.919" x2="-23.955" y1="124.013" y2="103.124" gradientTransform="matrix(-1 0 0 1 -31.29 0)" gradientUnits="userSpaceOnUse"></linearGradient><linearGradient xlink:href="#f" id="I" x1="241.61" x2="238.046" y1="340.159" y2="295.248" gradientUnits="userSpaceOnUse"></linearGradient><linearGradient id="J" x1="190.992" x2="190.992" y1="291.594" y2="301.581" gradientUnits="userSpaceOnUse"><stop offset="0" stop-color="#b3dafe"></stop><stop offset="1" stop-color="#0182fc"></stop></linearGradient><linearGradient xlink:href="#f" id="K" x1="306.966" x2="246.693" y1="330.919" y2="307.334" gradientUnits="userSpaceOnUse"></linearGradient><linearGradient xlink:href="#f" id="L" x1="341.044" x2="299.989" y1="296.775" y2="261.398" gradientUnits="userSpaceOnUse"></linearGradient><linearGradient xlink:href="#a" id="M" x1="297.859" x2="313.171" y1="238.405" y2="253.716" gradientUnits="userSpaceOnUse"></linearGradient><linearGradient xlink:href="#b" id="N" x1="283.711" x2="266.192" y1="267.283" y2="284.803" gradientUnits="userSpaceOnUse"></linearGradient><linearGradient xlink:href="#a" id="O" x1="-245.638" x2="-233.974" y1="785.411" y2="797.075" gradientTransform="rotate(90 256 826.994)" gradientUnits="userSpaceOnUse"></linearGradient><linearGradient xlink:href="#b" id="P" x1="-256.416" x2="-269.763" y1="807.411" y2="820.757" gradientTransform="rotate(90 256 826.994)" gradientUnits="userSpaceOnUse"></linearGradient><linearGradient xlink:href="#f" id="Q" x1="818.474" x2="154.131" y1="568.845" y2="113.342" gradientUnits="userSpaceOnUse"></linearGradient><linearGradient xlink:href="#f" id="R" x1="712.443" x2="48.099" y1="723.49" y2="267.987" gradientUnits="userSpaceOnUse"></linearGradient><linearGradient xlink:href="#f" id="S" x1="801.809" x2="137.465" y1="593.151" y2="137.649" gradientUnits="userSpaceOnUse"></linearGradient><linearGradient xlink:href="#f" id="T" x1="793.197" x2="128.853" y1="605.712" y2="150.209" gradientUnits="userSpaceOnUse"></linearGradient><linearGradient xlink:href="#f" id="U" x1="737.72" x2="73.377" y1="686.623" y2="231.12" gradientUnits="userSpaceOnUse"></linearGradient><linearGradient xlink:href="#f" id="V" x1="823.447" x2="159.103" y1="561.593" y2="106.09" gradientUnits="userSpaceOnUse"></linearGradient><linearGradient xlink:href="#f" id="W" x1="707.471" x2="43.127" y1="730.742" y2="275.239" gradientUnits="userSpaceOnUse"></linearGradient><linearGradient xlink:href="#f" id="X" x1="829.547" x2="165.203" y1="552.696" y2="97.193" gradientUnits="userSpaceOnUse"></linearGradient><linearGradient xlink:href="#f" id="Y" x1="701.37" x2="37.027" y1="739.639" y2="284.136" gradientUnits="userSpaceOnUse"></linearGradient><linearGradient xlink:href="#f" id="Z" x1="760.487" x2="96.143" y1="653.419" y2="197.916" gradientUnits="userSpaceOnUse"></linearGradient><linearGradient xlink:href="#f" id="aa" x1="770.431" x2="106.087" y1="638.916" y2="183.413" gradientUnits="userSpaceOnUse"></linearGradient><linearGradient xlink:href="#g" id="ab" x1="244.776" x2="265.024" y1="285.636" y2="305.884" gradientUnits="userSpaceOnUse"></linearGradient><linearGradient xlink:href="#h" id="ac" x1="256" x2="256" y1="297.093" y2="318.679" gradientUnits="userSpaceOnUse"></linearGradient><linearGradient xlink:href="#h" id="ad" x1="-1401.88" x2="-1401.88" y1="-883.976" y2="-861.255" gradientTransform="rotate(-45 853.218 -2294.93)" gradientUnits="userSpaceOnUse"></linearGradient><path fill="url(&quot;#i&quot;)" d="M214.405 455.19h-85.986c-15.709 11.035-29.323 23.325-39.571 36.272a127.577 127.577 0 0 0-3.111 4.099h67.975a57.962 57.962 0 0 1 2.978-4.099c12.648-15.981 35.414-29.783 57.715-36.272z" opacity="1" data-original="url(#i)"></path><path fill="url(&quot;#j&quot;)" d="M214.405 455.19h-85.986c-15.709 11.035-29.323 23.325-39.571 36.272a127.577 127.577 0 0 0-3.111 4.099h67.975a57.962 57.962 0 0 1 2.978-4.099c12.648-15.981 35.414-29.783 57.715-36.272z" opacity="1" data-original="url(#j)"></path><path fill="url(&quot;#k&quot;)" d="M161.849 512H84.914c-5.806 0-10.513-4.707-10.513-10.513 0-4.971 3.481-9.262 8.345-10.287l5.542-1.168a170.148 170.148 0 0 1 70.188 0l5.542 1.168a10.513 10.513 0 0 1 8.345 10.287c0 5.806-4.707 10.513-10.514 10.513z" opacity="1" data-original="url(#k)"></path><path fill="url(&quot;#l&quot;)" d="M161.849 512c5.806 0 10.513-4.707 10.513-10.513 0-4.971-3.481-9.262-8.345-10.287l-5.542-1.168a170.15 170.15 0 0 0-35.094-3.658v25.627h38.468z" opacity="1" data-original="url(#l)"></path><path fill="url(&quot;#m&quot;)" d="M74.401 501.487c0 5.806 4.707 10.513 10.513 10.513h76.935c5.806 0 10.513-4.707 10.513-10.513 0-3.022-1.292-5.787-3.393-7.725H77.794a10.494 10.494 0 0 0-3.393 7.725z" opacity="1" data-original="url(#m)"></path><path fill="url(&quot;#n&quot;)" d="M355.31 491.462a57.962 57.962 0 0 1 2.978 4.099h67.975a127.577 127.577 0 0 0-3.111-4.099c-10.247-12.948-23.861-25.237-39.571-36.272h-85.986c22.301 6.489 45.067 20.291 57.715 36.272z" opacity="1" data-original="url(#n)"></path><path fill="url(&quot;#o&quot;)" d="M355.31 491.462a57.962 57.962 0 0 1 2.978 4.099h67.975a127.577 127.577 0 0 0-3.111-4.099c-10.247-12.948-23.861-25.237-39.571-36.272h-85.986c22.301 6.489 45.067 20.291 57.715 36.272z" opacity="1" data-original="url(#o)"></path><path fill="url(&quot;#p&quot;)" d="M427.086 512h-76.935c-5.806 0-10.513-4.707-10.513-10.513 0-4.971 3.481-9.262 8.345-10.287l5.542-1.168a170.148 170.148 0 0 1 70.188 0l5.542 1.168a10.513 10.513 0 0 1-2.169 20.8z" opacity="1" data-original="url(#p)"></path><path fill="url(&quot;#q&quot;)" d="M427.086 512c5.806 0 10.513-4.707 10.513-10.513 0-4.971-3.481-9.262-8.345-10.287l-5.542-1.168a170.15 170.15 0 0 0-35.094-3.658V512z" opacity="1" data-original="url(#q)"></path><path fill="url(&quot;#r&quot;)" d="M339.637 501.487c0 5.806 4.707 10.513 10.513 10.513h76.935c5.806 0 10.513-4.707 10.513-10.513 0-3.022-1.292-5.787-3.393-7.725H343.03a10.498 10.498 0 0 0-3.393 7.725z" opacity="1" data-original="url(#r)"></path><path fill="url(&quot;#s&quot;)" d="m378.594 93.083-23.845-23.845c-5.289-5.288-8.201-12.32-8.201-19.8 0-9.374-7.627-17.001-17.001-17.001h-21.793c-16.573 0-32.156-6.454-43.877-18.174C261.771 12.159 258.975 11 256 11s-5.771 1.159-7.875 3.263c-11.721 11.721-27.304 18.175-43.877 18.175h-21.793c-9.375 0-17.001 7.627-17.001 17.001 0 7.479-2.913 14.512-8.201 19.8l-23.845 23.845-7.778-7.777 23.845-23.845a16.892 16.892 0 0 0 4.979-12.022c0-15.439 12.562-28.001 28.001-28.001h21.793c13.635 0 26.456-5.311 36.099-14.953C244.527 2.304 250.087 0 256 0s11.473 2.304 15.654 6.485c9.643 9.642 22.463 14.952 36.099 14.952h21.793c15.44 0 28.001 12.562 28.001 28.001 0 4.541 1.769 8.811 4.979 12.022l23.845 23.845z" opacity="1" data-original="url(#s)" class=""></path><circle cx="256" cy="296.86" r="209.158" fill="url(&quot;#t&quot;)" opacity="1" data-original="url(#t)"></circle><circle cx="256" cy="296.86" r="173.436" fill="url(&quot;#u&quot;)" opacity="1" data-original="url(#u)"></circle><circle cx="256" cy="296.86" r="209.158" fill="url(&quot;#v&quot;)" opacity="1" data-original="url(#v)" class=""></circle><path fill="url(&quot;#w&quot;)" d="M46.842 296.86c0 115.514 93.643 209.158 209.158 209.158s209.158-93.644 209.158-209.158c0-25.018-4.407-49.002-12.463-71.239H59.304c-8.055 22.237-12.462 46.222-12.462 71.239z" opacity="1" data-original="url(#w)" class=""></path><path fill="url(&quot;#x&quot;)" d="M108.103 444.758c81.681 81.681 214.113 81.682 295.795 0 81.681-81.681 81.681-214.114 0-295.795-17.69-17.69-37.766-31.533-59.186-41.561l-278.17 278.17c10.028 21.42 23.87 41.495 41.561 59.186z" opacity="1" data-original="url(#x)" class=""></path><circle cx="256" cy="296.86" r="146.617" fill="url(&quot;#y&quot;)" opacity="1" data-original="url(#y)"></circle><path fill="url(&quot;#z&quot;)" d="M402.617 296.86c0-80.974-65.643-146.617-146.617-146.617S109.383 215.886 109.383 296.86c0 17.537 3.089 34.35 8.736 49.937h275.762c5.647-15.587 8.736-32.399 8.736-49.937z" opacity="1" data-original="url(#z)" class=""></path><path fill="url(&quot;#A&quot;)" d="M359.674 193.186c-57.257-57.257-150.09-57.258-207.348 0-57.257 57.257-57.257 150.091 0 207.348 12.401 12.401 26.473 22.104 41.488 29.134l194.993-194.993c-7.029-15.015-16.732-29.088-29.133-41.489z" opacity="1" data-original="url(#A)"></path><path fill="url(&quot;#B&quot;)" d="m395.877 161.626 52.112 52.112c-9.764-22.571-23.705-43.763-41.8-62.425z" opacity="1" data-original="url(#B)"></path><path fill="url(&quot;#C&quot;)" d="M483.223 77.458c36.294 36.294 38.563 92.869 5.067 126.365S323.363 105.887 356.858 72.391s90.071-31.227 126.365 5.067z" opacity="1" data-original="url(#C)"></path><path fill="url(&quot;#D&quot;)" d="M488.29 203.823c33.495-33.495 31.227-90.071-5.067-126.365-10.31-10.31-22.259-17.867-34.85-22.645l-77.39 77.39c32.323 45.426 95.522 93.405 117.307 71.62z" opacity="1" data-original="url(#D)"></path><path fill="url(&quot;#E&quot;)" d="M356.858 72.391c-.423.423-.801.872-1.171 1.325l131.278 131.278c.453-.371.902-.748 1.325-1.171 33.495-33.495 31.227-90.071-5.067-126.365s-92.869-38.562-126.365-5.067z" opacity="1" data-original="url(#E)"></path><path fill="url(&quot;#F&quot;)" d="M28.777 77.458c-36.294 36.294-38.563 92.869-5.067 126.365s164.927-97.937 131.432-131.432-90.071-31.227-126.365 5.067z" opacity="1" data-original="url(#F)"></path><path fill="url(&quot;#G&quot;)" d="M23.71 203.823c-33.495-33.495-31.227-90.071 5.067-126.365 10.31-10.31 22.259-17.867 34.85-22.645l77.39 77.39c-32.323 45.426-95.522 93.405-117.307 71.62z" opacity="1" data-original="url(#G)"></path><path fill="url(&quot;#H&quot;)" d="M155.142 72.391c.423.423.801.872 1.171 1.325L25.035 204.994a17.727 17.727 0 0 1-1.325-1.171c-33.495-33.495-31.227-90.071 5.067-126.365s92.869-38.562 126.365-5.067z" opacity="1" data-original="url(#H)"></path><path fill="url(&quot;#I&quot;)" d="m129.151 300.862 141.843 141.843c30.814-3.149 60.816-16.035 85.028-38.656L252.834 300.862z" opacity="1" data-original="url(#I)"></path><path fill="url(&quot;#J&quot;)" d="M254.743 296.86a5.153 5.153 0 0 0-5.153-5.153H132.394a5.153 5.153 0 1 0 0 10.306h117.197a5.153 5.153 0 0 0 5.152-5.153z" opacity="1" data-original="url(#J)"></path><path fill="url(&quot;#K&quot;)" d="m243.025 309.836 43.591 43.591c7.146 7.146 18.822 7.444 26.021.352l.281-.281c7.092-7.199 6.794-18.875-.352-26.021l-43.591-43.591z" opacity="1" data-original="url(#K)"></path><path fill="url(&quot;#L&quot;)" d="m243.025 309.836 102.867 102.867a147.985 147.985 0 0 0 13.782-12.168c46.968-46.968 55.398-117.87 25.311-173.441l-30.398-30.398z" opacity="1" data-original="url(#L)"></path><path fill="url(&quot;#M&quot;)" d="m256 294.994-6.41-6.41 30.717-40c10.523-13.703 27.525-28.929 54.23-46.02l11.033-7.061c6.37-4.077 13.996 3.549 9.919 9.919l-7.061 11.033c-17.091 26.706-32.317 43.707-46.02 54.23l-40 30.717z" opacity="1" data-original="url(#M)"></path><path fill="url(&quot;#N&quot;)" d="m311.503 262.914-23.423-23.423c-2.907 3.103-5.501 6.136-7.772 9.093l-30.717 40 6.41 6.41 6.41 6.41 40-30.717c2.956-2.272 5.989-4.866 9.092-7.773z" opacity="1" data-original="url(#N)"></path><path fill="url(&quot;#O&quot;)" d="m254.473 293.467 4.883-4.883 30.472 23.401c10.439 8.016 22.039 20.968 35.058 41.313l5.379 8.405c3.106 4.853-2.704 10.662-7.557 7.557l-8.405-5.379c-20.344-13.02-33.296-24.619-41.313-35.058l-23.401-30.472z" opacity="1" data-original="url(#O)"></path><path fill="url(&quot;#P&quot;)" d="m278.912 335.75 17.844-17.844c-2.364-2.215-4.674-4.191-6.927-5.921l-30.472-23.401-4.883 4.883-4.883 4.883 23.401 30.472c1.729 2.253 3.705 4.564 5.92 6.928z" opacity="1" data-original="url(#P)"></path><path fill="url(&quot;#Q&quot;)" d="M256 168.102a5.153 5.153 0 0 0-5.153 5.153v19.866a5.153 5.153 0 1 0 10.306 0v-19.866a5.153 5.153 0 0 0-5.153-5.153z" opacity="1" data-original="url(#Q)"></path><path fill="url(&quot;#R&quot;)" d="M256 395.447a5.153 5.153 0 0 0-5.153 5.153v19.866a5.153 5.153 0 1 0 10.306 0V400.6a5.153 5.153 0 0 0-5.153-5.153z" opacity="1" data-original="url(#R)"></path><path fill="url(&quot;#S&quot;)" d="M379.606 291.708H359.74a5.153 5.153 0 1 0 0 10.306h19.866a5.153 5.153 0 1 0 0-10.306z" opacity="1" data-original="url(#S)"></path><path fill="url(&quot;#T&quot;)" d="M198.659 187.238a5.152 5.152 0 1 0-8.925 5.153l9.933 17.205a5.152 5.152 0 1 0 8.925-5.153z" opacity="1" data-original="url(#T)"></path><path fill="url(&quot;#U&quot;)" d="M312.332 384.125a5.152 5.152 0 1 0-8.925 5.153l9.933 17.205a5.152 5.152 0 1 0 8.925-5.153z" opacity="1" data-original="url(#U)"></path><path fill="url(&quot;#V&quot;)" d="m348.418 249.453 17.205-9.933a5.152 5.152 0 1 0-5.153-8.925l-17.205 9.933a5.153 5.153 0 0 0 5.153 8.925z" opacity="1" data-original="url(#V)"></path><path fill="url(&quot;#W&quot;)" d="m163.582 344.268-17.205 9.933a5.153 5.153 0 0 0 5.153 8.925l17.205-9.933a5.152 5.152 0 1 0-5.153-8.925z" opacity="1" data-original="url(#W)"></path><path fill="url(&quot;#X&quot;)" d="M320.379 185.352a5.153 5.153 0 0 0-7.039 1.886l-9.933 17.205a5.153 5.153 0 0 0 8.925 5.153l9.933-17.205a5.152 5.152 0 0 0-1.886-7.039z" opacity="1" data-original="url(#X)"></path><path fill="url(&quot;#Y&quot;)" d="M206.706 382.239a5.152 5.152 0 0 0-7.039 1.886l-9.933 17.205a5.153 5.153 0 0 0 8.925 5.153l9.933-17.205a5.152 5.152 0 0 0-1.886-7.039z" opacity="1" data-original="url(#Y)"></path><path fill="url(&quot;#Z&quot;)" d="m168.735 240.528-17.205-9.933a5.152 5.152 0 1 0-5.153 8.925l17.205 9.933a5.153 5.153 0 0 0 5.153-8.925z" opacity="1" data-original="url(#Z)"></path><path fill="url(&quot;#aa&quot;)" d="m365.622 354.201-17.205-9.933a5.153 5.153 0 0 0-5.153 8.925l17.205 9.933a5.152 5.152 0 1 0 5.153-8.925z" opacity="1" data-original="url(#aa)"></path><circle cx="256" cy="296.86" r="18.35" fill="url(&quot;#ab&quot;)" opacity="1" data-original="url(#ab)"></circle><path fill="url(&quot;#ac&quot;)" d="M237.65 296.86c0 10.134 8.215 18.35 18.35 18.35 10.134 0 18.35-8.215 18.35-18.35a18.33 18.33 0 0 0-1.093-6.25h-34.513a18.311 18.311 0 0 0-1.094 6.25z" opacity="1" data-original="url(#ac)"></path><path fill="url(&quot;#ad&quot;)" d="M243.025 309.836c7.166 7.166 18.784 7.166 25.95 0s7.166-18.784 0-25.95a18.318 18.318 0 0 0-5.192-3.646l-24.404 24.404a18.312 18.312 0 0 0 3.646 5.192z" opacity="1" data-original="url(#ad)"></path></g></svg>